# xmcd
#
# Track frame offsets: 
#        150
#        8910
#        20410
#        38140
#        51980
#        62262
#        75267
#        90965
#        105392
#        120527
#        131947
#        142860
#        155402
#        170857
#
# Disc length: 2433 seconds
#
# Revision: 0
# Processed by: cddbd v1.5.2PL0 Copyright (c) Steve Scherf et al.
# Submitted via: ExactAudioCopyFreeDBPlugin 1.0
#
DISCID=a5097f0e
DTITLE=Margaret Bates - Everyday Love
DYEAR=1995
DGENRE=Country
TTITLE0=Come On In
TTITLE1=Everyday Love
TTITLE2=Mamas Bible
TTITLE3=Heaven With You
TTITLE4=Place Where I Worship
TTITLE5=It's Not What You Know
TTITLE6=Forty Shades Of Green
TTITLE7=Home Is Where The Heart Is
TTITLE8=Wabash Waltz (Stout) Allans
TTITLE9=The One You Slip Around With
TTITLE10=The Minute You're Gone (Gately)
TTITLE11=Don't Forget Your First Sweet-Heart
TTITLE12=Where Would That Leave Me
TTITLE13=Christmas Wishes
EXTD=
EXTT0=
EXTT1=
EXTT2=
EXTT3=
EXTT4=
EXTT5=
EXTT6=
EXTT7=
EXTT8=
EXTT9=
EXTT10=
EXTT11=
EXTT12=
EXTT13=
PLAYORDER=
